<?xml version="1.0" encoding="UTF-8"?>
<svg width="75px" height="95px" viewBox="0 0 75 95" version="1.1" xmlns="http://www.w3.org/2000/svg" xmlns:xlink="http://www.w3.org/1999/xlink">
    <title>cleanseer icon</title>
    <g id="Page-1" stroke="none" stroke-width="1" fill="none" fill-rule="evenodd">
        <g id="How-to-Use-Desktop-2" transform="translate(-187.000000, -858.000000)">
            <g id="SECTION-1" transform="translate(-8.000000, 756.000000)">
                <g id="icons-+-copy" transform="translate(98.000000, 102.000000)">
                    <g id="cleanseer-icon" transform="translate(97.000000, 0.000000)">
                        <g id="1" transform="translate(33.000000, 0.000000)">
                            <circle id="Oval" fill="#B9680C" cx="21" cy="21" r="21"></circle>
                            <text font-family="Helvetica" font-size="16" font-weight="normal" line-spacing="16" fill="#FFFFFF">
                                <tspan x="5" y="28">1</tspan>
                            </text>
                        </g>
                        <g id="cleanser-icon" transform="translate(0.000000, 13.000000)">
                            <rect id="Rectangle" stroke="#3D3D38" fill="#F7F6F3" x="15" y="22" width="32" height="59"></rect>
                            <rect id="Rectangle-Copy" stroke="#3D3D38" fill="#F7F6F3" x="24" y="8" width="14" height="14"></rect>
                            <g id="noun_drop_3058949" transform="translate(0.000000, 7.000000)" fill="#B9680C" fill-rule="nonzero">
                                <path d="M4.32226281,0.136672254 C3.03919475,3.6849998 0.9375,5.07271095 0.9375,7.57424179 C0.9375,9.46623581 2.50450338,11 4.4375,11 C6.37049662,11 7.9375,9.46623581 7.9375,7.57424179 C7.9375,5.0727195 5.83580525,3.68500835 4.55273719,0.136672254 C4.48684152,-0.0455574179 4.38815848,-0.0455574179 4.32226281,0.136672254 Z" id="Path"></path>
                            </g>
                            <rect id="Rectangle-2" stroke="#3D3D38" fill="#F7F6F3" x="27" y="3" width="8" height="5"></rect>
                            <rect id="Rectangle-Copy-2" stroke="#3D3D38" fill="#F7F6F3" x="6" y="0" width="30" height="3"></rect>
                        </g>
                    </g>
                </g>
            </g>
        </g>
    </g>
</svg>