<?xml version="1.0" encoding="UTF-8"?>
<svg width="104px" height="164px" viewBox="0 0 104 164" version="1.1" xmlns="http://www.w3.org/2000/svg" xmlns:xlink="http://www.w3.org/1999/xlink">
    <title>drop</title>
    <g id="Page-1" stroke="none" stroke-width="1" fill="none" fill-rule="evenodd">
        <g id="How-to-Use-Desktop-2" transform="translate(-295.000000, -4806.000000)">
            <g id="SECTION-5" transform="translate(197.000000, 4467.000000)">
                <g id="cards" transform="translate(1.000000, 188.000000)">
                    <g id="drop" transform="translate(98.000000, 152.000000)">
                        <path d="M68.9926876,37.4485393 C83.2011561,56.4684219 92.5184697,73.4581919 96.9446284,88.417849 C99.3153498,96.4304807 102.161699,103.789923 101.992828,111.539478 C101.895219,116.018769 100.212486,122.812711 96.9446284,131.921304 C89.9850262,143.253894 83.8642623,150.650142 78.5823369,154.110047 C73.3004115,157.569953 64.1150335,160.199937 51.0262028,162 C37.0440486,160.934072 27.1116,158.304088 21.2288571,154.110047 C15.3461142,149.916007 9.43478441,141.250335 3.49486779,128.11303 C0.860751762,119.929002 -0.284345009,113.589053 0.0595774738,109.093185 C0.556670211,102.595024 2.76497898,94.9765393 5.21680169,88.417849 C8.88624502,78.6019916 22.3926618,50.5885717 33.3231376,37.4485393 C34.9537746,35.4882748 34.3047858,32.1297129 37.1905197,32.0019962 C39.6921772,31.8912779 46.0312457,36.4103593 49.16954,39.540507 C53.9748669,44.3333599 60.5825827,43.6360374 68.9926876,37.4485393 Z" id="Path-3" fill="#B9680C"></path>
                        <path d="M49.3208296,2.01280956 C30.6246949,54.269997 0,74.7071976 0,111.547925 C0,139.411836 22.8334778,162 51,162 C79.1665222,162 102,139.411836 102,111.547925 C102,74.7073236 71.3753051,54.270123 52.6791704,2.01280956 C51.7189764,-0.670936519 50.2810236,-0.670936519 49.3208296,2.01280956 Z" id="Path-Copy" stroke="#3D3D38" stroke-width="2" fill-rule="nonzero"></path>
                    </g>
                </g>
            </g>
        </g>
    </g>
</svg>