<?xml version="1.0" encoding="UTF-8"?>
<svg width="104px" height="164px" viewBox="0 0 104 164" version="1.1" xmlns="http://www.w3.org/2000/svg" xmlns:xlink="http://www.w3.org/1999/xlink">
    <title>drop</title>
    <g id="Page-1" stroke="none" stroke-width="1" fill="none" fill-rule="evenodd">
        <g id="How-to-Use-Desktop-2" transform="translate(-675.000000, -4804.000000)">
            <g id="SECTION-5" transform="translate(197.000000, 4467.000000)">
                <g id="cards" transform="translate(1.000000, 188.000000)">
                    <g id="normal-skin" transform="translate(380.000000, 0.000000)">
                        <g id="drop" transform="translate(98.000000, 150.000000)">
                            <path d="M11.6880647,73.7779571 L15.7779217,65.5152508 C26.942416,62.1615831 34.8621331,62.1615831 39.5370728,65.5152508 C49.1424559,72.4058771 56.1679422,76.3963976 66.1501116,73.7779571 C72.9256272,72.0006595 81.5759824,72.0006595 92.1011772,73.7779571 C95.6022239,81.2248814 98.1063494,88.3001886 99.6135536,95.0038789 C101.120758,101.707569 101.91624,109.308141 102,117.805595 C98.3304885,132.319435 93.2978058,142.337084 86.9019518,147.858542 C82.5623028,151.604904 75.61969,156.63516 66.1501116,159.586705 C63.158872,160.519035 58.1088348,161.267878 51,161.833232 C39.703809,162.819056 29.5638683,159.434216 20.5801778,151.678713 C14.5698499,146.490075 7.37299936,139.121361 3.26373166,130.767735 C1.90847084,128.01266 0.820560286,123.691946 0,117.805595 C0.405552455,109.50455 1.49346301,101.283765 3.26373166,93.1432382 C5.03400032,85.0027115 7.84211132,78.5476178 11.6880647,73.7779571 Z" id="Path-4" fill="#B9680C"></path>
                            <path d="M49.3208296,2.01280956 C30.6246949,54.269997 0,74.7071976 0,111.547925 C0,139.411836 22.8334778,162 51,162 C79.1665222,162 102,139.411836 102,111.547925 C102,74.7073236 71.3753051,54.270123 52.6791704,2.01280956 C51.7189764,-0.670936519 50.2810236,-0.670936519 49.3208296,2.01280956 Z" id="Path-Copy-2" stroke="#3D3D38" stroke-width="2" fill-rule="nonzero"></path>
                        </g>
                    </g>
                </g>
            </g>
        </g>
    </g>
</svg>