<?xml version="1.0" encoding="UTF-8"?>
<svg xmlns="http://www.w3.org/2000/svg" width="63" height="94" fill="none" fill-rule="evenodd"><circle fill="#b9680c" cx="42" cy="21" r="21"></circle><text font-family="AvenirLTPro-Heavy, Avenir LT Pro" font-size="16" font-weight="600" fill="#fff"><tspan x="37.264" y="26">3</tspan></text><g fill="#b9680c"><path d="M12 60h5v14h-5z"></path><path d="M13 66h3v12h-3z"></path></g><g stroke="#3d3d38"><path d="M12 35h5v39h-5z"></path><path d="M13 74h3v4h-3z"></path><path fill="#f7f6f3" d="M1 17h28v26H1z"></path></g><path d="M15 13c4.97 0 9 1.79 9 4h0H6c0-2.21 4.03-4 9-4z" fill="#3d3d38"></path><path d="M14.385 83.137C13.102 86.685 11 88.073 11 90.574 11 92.466 12.567 94 14.5 94s3.5-1.534 3.5-3.426c0-2.502-2.102-3.89-3.385-7.438-.066-.182-.165-.182-.23 0z" fill="#b9680c" fill-rule="nonzero"></path></svg>