<?xml version="1.0" encoding="UTF-8"?>
<svg width="63px" height="110px" viewBox="0 0 63 110" version="1.1" xmlns="http://www.w3.org/2000/svg" xmlns:xlink="http://www.w3.org/1999/xlink">
    <title>dropper icon</title>
    <g id="Page-1" stroke="none" stroke-width="1" fill="none" fill-rule="evenodd">
        <g id="How-to-Use-Desktop-2" transform="translate(-873.000000, -858.000000)">
            <g id="SECTION-1" transform="translate(-8.000000, 756.000000)">
                <g id="icons-+-copy" transform="translate(98.000000, 102.000000)">
                    <g id="dropper" transform="translate(666.000000, 0.000000)">
                        <g id="dropper-icon" transform="translate(118.000000, 0.000000)">
                            <g id="3" transform="translate(20.000000, 0.000000)">
                                <circle id="Oval" fill="#B9680C" cx="21" cy="21" r="21"></circle>
                                <text font-family="Helvetica" font-size="16" font-weight="normal" line-spacing="16" fill="#FFFFFF">
                                    <tspan x="5" y="29">3</tspan>
                                </text>
                            </g>
                            <g id="drop" transform="translate(10.000000, 99.000000)"></g>
                            <g transform="translate(0.000000, 13.000000)">
                                <rect id="Rectangle" fill="#B9680C" x="11" y="47" width="5" height="14"></rect>
                                <rect id="Rectangle-Copy-8" fill="#B9680C" x="12" y="53" width="3" height="12"></rect>
                                <rect id="Rectangle-Copy-4" stroke="#3D3D38" x="11" y="22" width="5" height="39"></rect>
                                <rect id="Rectangle-Copy-7" stroke="#3D3D38" x="12" y="61" width="3" height="4"></rect>
                                <rect id="Rectangle-Copy-6" stroke="#3D3D38" fill="#F7F6F3" x="0" y="4" width="28" height="26"></rect>
                                <path d="M14,0 C18.9705627,0 23,1.790861 23,4 L23,4 L5,4 C5,1.790861 9.02943725,0 14,0 Z" id="Combined-Shape" fill="#3D3D38"></path>
                                <path d="M13.3847628,70.1366723 C12.1016947,73.6849998 10,75.0727109 10,77.5742418 C10,79.4662358 11.5670034,81 13.5,81 C15.4329966,81 17,79.4662358 17,77.5742418 C17,75.0727195 14.8983053,73.6850084 13.6152372,70.1366723 C13.5493415,69.9544426 13.4506585,69.9544426 13.3847628,70.1366723 Z" id="Path" fill="#B9680C" fill-rule="nonzero"></path>
                            </g>
                        </g>
                    </g>
                </g>
            </g>
        </g>
    </g>
</svg>