<?xml version="1.0" encoding="UTF-8"?>
<svg width="104px" height="164px" viewBox="0 0 104 164" version="1.1" xmlns="http://www.w3.org/2000/svg" xmlns:xlink="http://www.w3.org/1999/xlink">
    <title>drop</title>
    <g id="Page-1" stroke="none" stroke-width="1" fill="none" fill-rule="evenodd">
        <g id="How-to-Use-Desktop-2" transform="translate(-1040.000000, -4804.000000)">
            <g id="SECTION-5" transform="translate(197.000000, 4467.000000)">
                <g id="cards" transform="translate(1.000000, 188.000000)">
                    <g id="oily-skin" transform="translate(744.000000, 0.000000)">
                        <g id="drop" transform="translate(99.000000, 150.000000)">
                            <path d="M0,110.277012 C0.508216643,113.4055 8.29890675,114.969743 23.3720703,114.969743 C45.9818157,114.969743 53.2734375,105.680713 69.2070312,110.277012 C79.8294271,113.341211 90.7604167,113.341211 102,110.277012 C101.954535,116.086558 101.51085,120.59692 100.668945,123.808099 C99.8270402,127.019277 97.8931209,131.577528 94.8671875,137.48285 C87.8494463,147.126155 81.8325192,153.38805 76.8164062,156.268537 C73.523141,158.159684 65.3524296,161.424993 58.9648438,162.673442 C56.7370978,163.108853 54.0821498,163.108853 51,162.673442 C47.077474,163.315014 40.4192708,161.759299 31.0253906,158.006294 C21.6315104,154.25329 14.9563802,148.75564 11,141.513345 C7.51391877,138.740338 4.93611929,134.983397 3.26660156,130.242523 C1.59708383,125.50165 0.508216643,118.846479 0,110.277012 Z" id="Path-5" fill="#B9680C"></path>
                            <path d="M49.3208296,2.01280956 C30.6246949,54.269997 0,74.7071976 0,111.547925 C0,139.411836 22.8334778,162 51,162 C79.1665222,162 102,139.411836 102,111.547925 C102,74.7073236 71.3753051,54.270123 52.6791704,2.01280956 C51.7189764,-0.670936519 50.2810236,-0.670936519 49.3208296,2.01280956 Z" id="Path-Copy-3" stroke="#3D3D38" stroke-width="2" fill-rule="nonzero"></path>
                        </g>
                    </g>
                </g>
            </g>
        </g>
    </g>
</svg>