<?xml version="1.0" encoding="UTF-8"?>
<svg width="76px" height="93px" viewBox="0 0 76 93" version="1.1" xmlns="http://www.w3.org/2000/svg" xmlns:xlink="http://www.w3.org/1999/xlink">
    <title>face icon</title>
    <g id="Page-1" stroke="none" stroke-width="1" fill="none" fill-rule="evenodd">
        <g id="How-to-Use-Desktop-2" transform="translate(-1193.000000, -858.000000)">
            <g id="SECTION-1" transform="translate(-8.000000, 756.000000)">
                <g id="icons-+-copy" transform="translate(98.000000, 102.000000)">
                    <g id="face" transform="translate(999.000000, 0.000000)">
                        <g id="face-icon" transform="translate(104.000000, 0.000000)">
                            <g transform="translate(28.000000, 0.000000)">
                                <g id="4" transform="translate(5.000000, 0.000000)">
                                    <circle id="Oval" fill="#B9680C" cx="21" cy="21" r="21"></circle>
                                    <text font-family="Helvetica" font-size="16" font-weight="normal" line-spacing="16" fill="#FFFFFF">
                                        <tspan x="5" y="29">4</tspan>
                                    </text>
                                </g>
                                <ellipse id="Oval" fill="#F7F6F3" transform="translate(10.240254, 33.869473) rotate(-20.000000) translate(-10.240254, -33.869473) " cx="10.2402544" cy="33.8694732" rx="4.5" ry="17"></ellipse>
                            </g>
                            <g transform="translate(0.000000, 14.000000)">
                                <g id="noun_beard_1044558" fill="#3D3D38" fill-rule="nonzero">
                                    <path d="M47.5721667,16.2263302 C46.9536384,14.8547157 45.2202319,13.8620002 43.8856023,14.5718044 C44.8927259,11.6155498 44.4498291,9.30931756 42.4270973,6.91888555 C40.4043656,4.52845353 38.8338637,4.61181132 38.8338637,4.61181132 C40.3526094,5.75608646 41.6049383,7.36935442 41.9035967,9.23774774 C38.6480507,5.21215582 34.0901166,2.23990326 29.0740133,0.873340687 C24.0579101,-0.494063888 18.6099401,-0.249042502 13.7389237,1.56125296 C12.4568987,2.03782377 11.2147513,2.62132831 10.0286024,3.29997861 C7.28467857,4.86946268 4.8436554,6.94498748 2.82940826,9.36909941 C1.97755311,10.3946528 0.617469639,11.8176293 0.295054343,13.110938 C-0.152933225,14.9069195 0.012516729,17.102008 0.126210544,18.9325115 C0.250085894,20.9229945 0.738799605,22.8637996 0.827039581,24.8458626 C0.98909569,28.5169735 1.00436799,35.4179882 1.25381562,38.289201 C1.25211869,38.3077249 1.24872485,38.3279329 1.24702793,38.3456148 C0.993337997,41.9047399 0.788858822,47.9898587 0.949218009,49.072668 C1.05273029,49.7715262 1.23599793,50.4577545 1.4404771,51.1347208 C3.4776327,57.8824919 9.48389027,69.5071148 11.0000906,71.5413817 C11.6627389,72.4305315 12.3635679,73.3382052 13.0703362,74.1877811 C15.0905226,76.616945 18.3435232,78.0222395 19.7103944,78.5796421 C20.014992,78.7042578 20.7226087,79.0730528 21.0569025,78.9871691 C21.5464646,78.8608694 21.2376247,78.4112425 21.078114,78.0458154 C20.1227466,75.8524109 20.9924194,73.2725294 20.4078296,70.9536672 C20.3747396,70.8214735 20.3323165,70.6833858 20.2313496,70.5907661 C20.1303827,70.4981463 19.9878412,70.4678344 19.8537843,70.4392065 C18.1458317,70.0695694 16.5295129,69.3050353 15.1499149,68.241592 C14.4482374,67.7001873 13.8806167,67.0703729 13.2748154,66.4329805 C12.7844047,65.9159938 12.1285442,65.6920223 12.0963026,64.8828624 C12.0691519,64.2025281 12.0632126,63.5213518 12.0470919,62.8401755 C12.0428496,62.6700919 12.0470919,62.4991663 12.0649096,62.3299248 C12.0258803,61.8104121 12.0029719,61.2799534 11.8163104,60.7941206 C11.6381335,60.3284958 11.3199605,59.9302308 11.1086937,59.4789199 C10.9729399,59.1884306 10.8473676,58.9695112 10.7599761,58.7354358 C10.6233738,58.4121086 10.5504061,58.0609955 10.4265308,57.7309323 C10.3739262,57.5911606 10.312837,57.456441 10.2432631,57.3259313 C9.96666475,56.8022086 9.56958486,56.3416358 9.18014112,55.8920089 C7.36697931,53.7996441 5.55466597,51.7072794 3.74150416,49.6149146 C3.47254193,49.3042174 3.19933739,48.9876262 3.0389782,48.6087271 C2.89813362,48.276138 2.85231671,47.9132369 2.80734827,47.5545458 C2.40772299,44.3557958 2.00724926,41.1562038 1.60762398,37.9574538 C2.10482231,32.0247367 2.29996841,23.7327414 4.4270609,18.699278 C5.04134688,17.2459897 6.04168276,15.7042915 7.61303309,15.4752681 C10.6250707,15.0357452 13.1042747,16.5252395 15.9415293,17.6215207 C20.3967996,19.3425644 25.4196905,20.0077428 29.9750792,18.5679264 C32.2727124,17.8421242 34.4456218,16.9150845 36.8518581,16.4284097 C32.0173256,17.2080998 27.2438823,15.1612029 22.6019505,13.6110848 C17.9600187,12.0609667 12.5459871,11.0631992 8.40549595,13.6582367 C14.2106682,9.65032671 22.2065675,10.0679577 28.6955996,12.8566547 C30.2372538,13.519307 31.7814533,14.1634354 33.3765606,14.6854741 C35.2296001,15.2917126 34.9750617,15.110683 37.5866256,15.8137513 C31.0823212,12.2731501 25.1303652,8.90431657 17.756388,9.71010856 C21.5524039,9.12913001 25.4476897,8.74602097 29.2182517,9.47350715 C32.9888138,10.2009933 36.6609543,12.1771624 38.6701107,15.4264322 C39.1384613,16.1842303 39.8019581,16.6700631 40.668237,16.8948766 C41.2477361,17.0455942 42.029169,16.8864566 42.029169,16.8864566 C41.4903961,17.501115 41.4751237,18.4306807 41.7381468,19.2019508 C42.0011698,19.9732209 42.4975196,20.6409252 42.915811,21.3414674 C45.8540325,26.2621031 44.8290913,32.3825858 45.2431404,38.1342734 C44.8503028,41.2740835 44.4583137,44.4138936 44.0654761,47.5545458 C44.0205077,47.9123949 43.9746907,48.276138 43.8338462,48.6087271 C43.673487,48.9867842 43.4002824,49.3042174 43.1313202,49.6149146 C41.3181584,51.7072794 39.5058451,53.7996441 37.6926833,55.8920089 C37.3023911,56.3424778 36.9061596,56.8030506 36.6295612,57.3259313 C36.5599874,57.456441 36.4988982,57.5911606 36.4462936,57.7309323 C36.3224182,58.0609955 36.2494506,58.4121086 36.1128483,58.7354358 C36.0246083,58.9695112 35.8998845,59.1884306 35.7641307,59.4789199 C35.5528638,59.9302308 35.2346909,60.3284958 35.056514,60.7941206 C34.870701,61.2799534 34.846944,61.8104121 34.8079148,62.3299248 C34.824884,62.4991663 34.8299748,62.6700919 34.8257325,62.8401755 C34.8096117,63.5213518 34.802824,64.2025281 34.7765217,64.8828624 C34.7442802,65.6920223 34.0884196,65.9159938 33.598009,66.4329805 C32.9930561,67.0703729 32.424587,67.7001873 31.7229095,68.241592 C30.3433114,69.3050353 28.7269926,70.0687274 27.01904,70.4392065 C26.8849832,70.4686764 26.7424417,70.4981463 26.6414748,70.5907661 C26.5405079,70.6833858 26.4980848,70.8214735 26.4649948,70.9536672 C25.880405,73.2716874 26.7500778,75.8515689 25.7947104,78.0458154 C25.6351997,78.4120845 25.3263597,78.8608694 25.8159219,78.9871691 C26.1502157,79.0730528 26.8569839,78.7042578 27.16243,78.5796421 C28.5284527,78.0222395 31.7823018,76.616945 33.8024882,74.1877811 C34.5092564,73.3373632 35.2100855,72.4305315 35.8727338,71.5413817 C37.3889341,69.5071148 43.3951917,57.8824919 45.4323473,51.1347208 C45.6368264,50.4577545 45.8200941,49.7723682 45.9236064,49.072668 C46.0831171,47.9898587 45.8786379,41.9047399 45.6257964,38.3456148 C45.6232511,38.3110929 45.6173118,38.272361 45.6130695,38.2344711 C46.3631093,32.3792178 47.0656353,26.5239644 47.8190689,20.6687111 C48.0108212,19.1766908 48.190695,17.5979448 47.5721667,16.2263302 Z" id="Path"></path>
                                    <path d="M29.4992163,33.2707621 C30.4961452,33.3685049 31.4913312,33.087734 32.4412022,32.7418012 C33.3910733,32.3958684 34.3278727,31.9799824 35.3143443,31.7950377 C37.9216967,31.3053655 40.5586781,32.4763624 42.811354,34 C43.0004567,33.8581771 43.040543,33.5553661 42.9621133,33.3196335 C42.8836836,33.0839009 42.7128811,32.9008728 42.5420786,32.7331768 C41.4658486,31.6762131 40.1682724,30.8942708 38.779195,30.4649692 C37.0450267,29.9293003 35.2115142,29.9455908 33.4137308,30.0768728 C31.5331604,30.2139043 29.6595615,30.4726353 27.8051344,30.8501907 C25.5899306,31.303449 28.546731,33.1768524 29.4992163,33.2707621 Z" id="Path"></path>
                                    <path d="M14.5866344,30.0768728 C12.7897264,29.9455908 10.9553466,29.9293003 9.22118223,30.4649692 C7.83210789,30.8942708 6.53453468,31.6762131 5.45830706,32.7331768 C5.28750495,32.9008728 5.11757427,33.0839009 5.03827329,33.3196335 C4.95897231,33.5553661 5,33.8581771 5.1890323,34 C7.44170305,32.4763624 10.0786786,31.3053655 12.6860251,31.7950377 C13.6724945,31.9799824 14.6092918,32.3958684 15.5591607,32.7418012 C16.5090296,33.087734 17.5042134,33.3694632 18.50114,33.2707621 C19.4536232,33.1768524 22.410417,31.303449 20.1943467,30.851149 C18.3416666,30.4726353 16.468072,30.2148626 14.5866344,30.0768728 Z" id="Path"></path>
                                </g>
                                <path d="M35.7326371,44 L27,51.330879 C30.2246887,58.246193 32.8180802,59.7835605 34.7801746,55.9429815 C36.7422691,52.1024025 39.1488775,49.3598436 42,47.7153048 L35.7326371,44 Z" id="Path-2" fill="#B9680C"></path>
                            </g>
                        </g>
                    </g>
                </g>
            </g>
        </g>
    </g>
</svg>