<svg id="logo-icon" viewBox="0 0 228 20">
	<g id="icon-logo">
		<path id="Combined-Shape" class="cls-1" d="M158,16.54H155.4v-.92H158V12.92h.9V15.6h2.62v.93h-2.62v2.69H158Z"></path>
		<path id="Fill-6" class="cls-1" d="M7.71,15.7A7.7,7.7,0,0,1,0,7.92,7.7,7.7,0,0,1,7.71.14a6.65,6.65,0,0,1,5.55,2.95L11.64,4.56A5,5,0,0,0,7.57,2.31c-2.7,0-5,2.48-5,5.61s2.29,5.61,5,5.61a4.81,4.81,0,0,0,4.07-2.23l1.62,1.45A6.44,6.44,0,0,1,7.71,15.7"></path>
		<polyline id="Fill-7" class="cls-1" points="31.34 10.13 29.08 4.3 24.71 15.6 22.11 15.6 28.2 0.24 29.96 0.24 36.03 15.6 33.43 15.6 32.16 12.3"></polyline>
		<polyline id="Fill-8" class="cls-1" points="134.93 0.24 128.84 15.6 131.44 15.6 135.81 4.3 138.07 10.13 138.88 12.3 140.16 15.6 142.76 15.6 136.69 0.24 134.93 0.24"></polyline>
		<polyline id="Fill-9" class="cls-1" points="55.26 15.6 45.6 15.6 45.6 0.24 48.13 0.24 48.13 13.43 55.26 13.43 55.26 15.6"></polyline>
		<polyline id="Fill-10" class="cls-1" points="98.64 15.6 88.13 15.6 88.13 0.24 98.26 0.24 98.26 2.41 90.67 2.41 90.67 6.55 96.88 6.55 96.88 8.74 90.67 8.74 90.67 13.43 98.64 13.43 98.64 15.6"></polyline>
		<path id="Fill-11" class="cls-1" d="M117,10.73l3.21,4.87h-2.87l-2.88-4.36h-3.09V15.6H108.8V.24h5.87A5.39,5.39,0,0,1,120,5.73a5.44,5.44,0,0,1-3.07,5m-2.38-1.66c1.7,0,2.92-1.39,2.92-3.34a3,3,0,0,0-2.92-3.32h-3.25V9.07h3.25"></path>
		<path id="Fill-12" class="cls-1" d="M70.94.14H65.05V15.5h5.89c4,0,7.09-3.44,7.09-7.68A7.38,7.38,0,0,0,70.94.14m-.3,13.19H67.19v-11h3.45c2.48,0,4.85,2.15,4.85,5.51s-2.36,5.51-4.85,5.51"></path>
		<polyline id="Fill-13" class="cls-1" points="201.09 0 195 15.36 197.6 15.36 201.97 4.05 204.22 9.89 205.04 12.06 206.32 15.36 208.92 15.36 202.85 0 201.09 0"></polyline>
		<polyline id="Fill-14" class="cls-1" points="176.4 0 176.4 15.36 186.06 15.36 186.06 13.19 178.94 13.19 178.94 0 176.4 0"></polyline><path id="Fill-15" class="cls-1" d="M227.73,10.72a4.49,4.49,0,0,1-4.54,4.63h-6V0h5.92a3.78,3.78,0,0,1,3.74,3.83,3.51,3.51,0,0,1-1.46,2.9A4.26,4.26,0,0,1,227.73,10.72Zm-4.82-4.91A1.69,1.69,0,0,0,224.32,4c0-1-.54-1.8-1.47-1.8h-3.12V5.81Zm2.29,4.77a2.4,2.4,0,0,0-2-2.6h-3.42v5.2h3.32A2.37,2.37,0,0,0,225.2,10.58Z"></path>
	</g>
</svg>