<?xml version="1.0" encoding="UTF-8"?>
<svg width="68px" height="58px" viewBox="0 0 68 58" version="1.1" xmlns="http://www.w3.org/2000/svg" xmlns:xlink="http://www.w3.org/1999/xlink">
    <title>noun_beard_1372829</title>
    <g id="Page-1" stroke="none" stroke-width="1" fill="none" fill-rule="evenodd">
        <g id="How-to-Use-Desktop-2" transform="translate(-182.000000, -3942.000000)" fill="#3D3D38" fill-rule="nonzero">
            <g id="SECTION-4" transform="translate(0.000000, 3787.000000)">
                <g id="left-side" transform="translate(0.000000, 101.000000)">
                    <g id="icons" transform="translate(90.000000, 34.000000)">
                        <g id="beard" transform="translate(0.000000, 20.000000)">
                            <g id="noun_beard_1372829" transform="translate(92.771774, 0.000000)">
                                <path d="M1.64696492,20.8185119 C1.57271411,23.1326115 3.98999038,32.171015 5.17800329,34.1245845 C6.3660162,36.0781541 8.47803915,37.8808042 8.65954113,38.8953188 C8.8410431,39.9098335 14.2861023,45.544163 14.6408561,47.4977325 C14.99561,49.4513021 15.7793685,52.771532 17.6273886,54.1465767 C19.4754087,55.5216213 23.1714488,58.2717107 27.4449953,57.9782561 C30.8440322,57.7518767 32.2135471,57.5925728 33.220058,57.7854144 C34.2100688,57.5925728 35.5795837,57.7854144 38.9951208,57.9782561 C43.2686672,58.2717107 46.9647074,55.5216213 48.8127275,54.1465767 C50.6607475,52.771532 51.4445061,49.4513021 51.7992599,47.4977325 C52.1540138,45.544163 57.5743227,39.9098335 57.7805749,38.8953188 C57.9868272,37.8808042 60.0575997,36.0781541 61.2621127,34.1245845 C62.4666258,32.171015 64.8839021,23.1326115 64.8096513,20.8185119 C64.7354005,18.5044123 66.5174199,15.7878606 66.1874163,13.4402233 C65.8574127,11.0925861 65.4531583,8.0238888 66.0224145,5.42471897 C66.3136703,3.60248784 66.1404033,1.73479865 65.519159,0 L64.3806466,4.62819918 L63.9598921,7.66335879 L61.0393603,22.1516345 C60.113993,24.3996833 58.226025,26.0928429 55.9160547,26.746296 C51.8652606,28.0542653 39.9851315,18.6553318 37.4276037,17.6408172 C35.5053329,16.8862195 33.9130656,18.3954149 33.2283081,19.2003191 C32.5435507,18.3618772 30.9512834,16.8862195 29.0290125,17.6408172 C26.4714847,18.6553318 14.5913556,28.0542653 10.5405616,26.746296 C8.23059126,26.0928429 6.34262318,24.3996833 5.41725589,22.1516345 L2.49672416,7.66335879 L2.07596958,4.62819918 L0.937457212,0 C0.316212942,1.73479865 0.142945939,3.60248784 0.434201743,5.42471897 C1.00345793,8.0238888 0.599203536,11.1177393 0.26919995,13.4402233 C-0.0608036364,15.7627074 1.71296564,18.5127967 1.64696492,20.8185119 Z M24.0522371,26.9988802 C25.1818415,25.7838746 29.6265891,25.6506159 30.7561934,25.7838746 C31.6394207,25.7704827 32.4968827,25.4967713 33.2118551,25 C33.9268275,25.4967713 34.7842895,25.7704827 35.6675168,25.7838746 C36.7971211,25.6506159 41.2418687,25.7838746 42.3714731,26.9988802 C43.2081019,27.8347685 44.171096,28.5455723 45.2282262,29.1075028 C45.2282262,29.1075028 42.8953476,31.93729 40.988117,32 C39.4077634,31.9866406 37.8300257,31.8740437 36.2650611,31.6629339 C35.2991675,31.6080627 34.3250884,30.8085106 33.2282262,31.5139978 C32.131364,30.8085106 31.1572848,31.6080627 30.1913912,31.6629339 C28.6264266,31.8740437 27.048689,31.9866406 25.4683353,32 C23.5611048,31.93729 21.2282262,29.1075028 21.2282262,29.1075028 C22.2737808,28.5429627 23.2255841,27.8322735 24.0522371,26.9988802 Z" id="Shape"></path>
                            </g>
                        </g>
                    </g>
                </g>
            </g>
        </g>
    </g>
</svg>