<?xml version="1.0" encoding="UTF-8"?>
<svg width="40px" height="79px" viewBox="0 0 40 79" version="1.1" xmlns="http://www.w3.org/2000/svg" xmlns:xlink="http://www.w3.org/1999/xlink">
    <title>noun_Straight Razor_21170</title>
    <g id="Page-1" stroke="none" stroke-width="1" fill="none" fill-rule="evenodd">
        <g id="How-to-Use-Desktop-2" transform="translate(-198.000000, -4123.000000)" fill="#3D3D38" fill-rule="nonzero">
            <g id="SECTION-4" transform="translate(0.000000, 3787.000000)">
                <g id="left-side" transform="translate(0.000000, 101.000000)">
                    <g id="icons" transform="translate(90.000000, 34.000000)">
                        <g id="shaving" transform="translate(0.000000, 201.000000)">
                            <g id="noun_Straight-Razor_21170" transform="translate(108.000000, 0.000000)">
                                <path d="M27.5919419,33.9933684 L26.8914821,33.5575221 L27.5919419,34.0012929 C27.6397005,34.0329908 27.6794994,34.0646887 27.7192982,34.0963866 C27.6794994,34.0567642 27.6397005,34.0250663 27.5919419,33.9933684 Z M7.64475669,65.0018502 L4.85087719,63.2426161 C4.88271628,63.274314 4.9304749,63.3060119 4.97027375,63.3377098 L7.64475669,65.0097746 C7.65271646,65.0176991 7.66067623,65.0176991 7.668636,65.0176991 C7.66067623,65.0176991 7.65271646,65.0097746 7.64475669,65.0018502 Z" id="Shape"></path>
                                <polygon id="Path" points="6.93812375 62.2212389 6.92982456 62.2278972 8.31578947 62.920354"></polygon>
                                <path d="M32.214392,11.1654968 L32.2064779,11.1575238 L33.6389333,8.87723841 C33.9792404,8.35899174 36.9628629,3.75058284 36.2664205,0.625156745 C36.1714511,0.194613354 35.7520029,-0.0764695218 35.3246405,0.0192067874 C34.8972781,0.114883097 34.6281981,0.545426488 34.7231675,0.967996853 C35.1901005,3.0569296 33.148258,6.74844053 32.3093615,8.0081786 L30.8610778,10.312383 L28.5897259,9.25197062 C28.2177623,9.08453708 27.7824858,9.22007852 27.5767188,9.57886468 L25.7722998,12.6963178 C25.6615022,12.8876704 25.6298457,13.1109151 25.6931586,13.3182138 C25.7089869,13.381998 26.0809504,14.7214663 26.6032822,17.105401 L19.0690417,29.1048048 L0.122642753,58.876083 C0.0118450982,59.0594626 -0.0277254928,59.2747343 0.0197592164,59.4820329 C0.0672439255,59.6893316 0.193869817,59.8647382 0.367980417,59.9843336 L4.89485602,62.8785419 L4.90277014,62.8865149 L7.68062563,64.6565267 C7.68853975,64.6644997 7.69645387,64.6724727 7.70436798,64.6724727 C7.72019622,64.6804457 7.72811034,64.6884188 7.74393857,64.6884188 L7.75185269,64.6963918 C7.79142328,64.7203109 7.83890799,64.7362569 7.8863927,64.752203 C7.95761977,64.776122 8.02884683,64.7840951 8.10007389,64.7840951 C8.36123979,64.7840951 8.62240569,64.6485536 8.77277394,64.4173359 L27.7587435,34.5663274 C27.8695411,34.3909209 27.9091117,34.1676761 27.861627,33.9683505 C27.8537129,33.9284854 27.8378847,33.8886202 27.8299706,33.8487551 C27.8141423,33.816863 27.7983141,33.7849709 27.7824858,33.7530788 C27.7587435,33.7132137 27.7429153,33.6813216 27.7191729,33.6494295 C27.6954305,33.6175374 27.6637741,33.5936183 27.6400317,33.5617262 C27.6004611,33.5298341 27.5608905,33.497942 27.5134058,33.4660499 L26.8169634,33.0195604 L24.4664703,31.5126586 C24.2369609,31.3930632 24.0391079,31.0581961 23.912482,30.5877876 C23.4218067,28.7300726 24.0628503,24.9588314 27.1572705,19.7604186 C29.1674565,30.0535948 32.079852,51.3415736 27.6954305,74.0009128 C27.6479458,74.2640227 27.7350011,74.5351056 27.92494,74.7264582 L32.0877661,78.7767553 C32.2381344,78.9282428 32.4359873,79 32.6417544,79 C32.7921227,79 32.950405,78.9601349 33.084945,78.8644586 L37.7621889,75.6513292 C37.9442136,75.5237608 38.0629254,75.3324081 38.0945819,75.1171365 C38.1499807,74.7503773 43.7452622,38.3774337 32.214392,11.1654968 Z M1.88749111,59.0674356 L20.3986136,29.9579185 L22.5195972,26.5853286 C22.1238913,28.2915561 22.0684925,29.798458 22.3850572,30.9944119 C22.6145667,31.8873908 23.0181867,32.3976644 23.3584938,32.6846933 L5.21142075,61.1882604 L1.88749111,59.0674356 Z M24.6801515,33.5537531 L25.9938951,34.3829478 L7.86265035,62.8865149 L6.54099261,62.0573203 L6.54890673,62.0493472 L24.6801515,33.5537531 Z M36.5829853,74.5271325 L32.7288097,77.1821501 L29.333653,73.8733444 C35.0001616,43.9665248 28.1781918,16.5233701 27.3076388,13.2145644 L28.5818118,11.0060363 L30.8769061,12.0744217 C41.4897386,37.4286437 37.1132312,70.8196756 36.5829853,74.5271325 Z" id="Shape"></path>
                                <ellipse id="Oval" cx="32.9166667" cy="73.7566372" rx="1.03947368" ry="1.04867257"></ellipse>
                                <ellipse id="Oval" cx="29.4517544" cy="14.3318584" rx="1.03947368" ry="1.04867257"></ellipse>
                            </g>
                        </g>
                    </g>
                </g>
            </g>
        </g>
    </g>
</svg>