<?xml version="1.0" encoding="UTF-8"?>
<svg width="79px" height="79px" viewBox="0 0 79 79" version="1.1" xmlns="http://www.w3.org/2000/svg" xmlns:xlink="http://www.w3.org/1999/xlink">
    <title>noun_Sunshine_971678</title>
    <g id="Page-1" stroke="none" stroke-width="1" fill="none" fill-rule="evenodd">
        <g id="How-to-Use-Desktop-2" transform="translate(-499.000000, -4123.000000)" fill="#3D3D38" fill-rule="nonzero">
            <g id="SECTION-4" transform="translate(0.000000, 3787.000000)">
                <g id="left-side" transform="translate(0.000000, 101.000000)">
                    <g id="icons" transform="translate(90.000000, 34.000000)">
                        <g id="sunburn" transform="translate(320.000000, 201.000000)">
                            <g id="noun_Sunshine_971678" transform="translate(89.000000, 0.000000)">
                                <path d="M24.1697704,25.6137175 C24.5058067,25.9527257 25.0529962,25.9512946 25.3890415,25.6122654 C25.7250706,25.2732535 25.7236475,24.7240849 25.3876022,24.3850657 L18.793038,17.7321327 C18.4570036,17.3931235 17.9140598,17.3931244 17.5780254,17.7321327 C17.2419864,18.0711464 17.2391322,18.6217752 17.5751468,18.9607626 L24.1697704,25.6137175 Z" id="Path"></path>
                                <path d="M9.81897182,39.1504425 C9.37186491,39.1504425 9.00877193,39.465376 9.00877193,39.8511872 C9.00877193,40.2369918 9.37186491,40.5486726 9.81897182,40.5486726 L18.593308,40.5486726 C19.0404158,40.5486726 19.4035088,40.2369918 19.4035088,39.8511872 C19.4035088,39.465376 19.0404158,39.1504425 18.593308,39.1504425 L9.81897182,39.1504425 Z" id="Path"></path>
                                <path d="M59.7138567,39.1504425 C59.2666669,39.1504425 58.9035088,39.465376 58.9035088,39.8511872 C58.9035088,40.2369918 59.2666669,40.5486726 59.7138567,40.5486726 L68.489787,40.5486726 C68.936976,40.5486726 69.2982456,40.2369918 69.2982456,39.8511872 C69.2982456,39.465376 68.936976,39.1504425 68.489787,39.1504425 L59.7138567,39.1504425 Z" id="Path"></path>
                                <path d="M39.5,9.90586599 C39.5,9.45480275 39.1878293,9.08849558 38.8054022,9.08849558 C38.4229817,9.08849558 38.1140351,9.45480275 38.1140351,9.90586599 L38.1140351,18.75785 C38.1140351,19.2089149 38.4229817,19.5752212 38.8054022,19.5752212 C39.1878293,19.5752212 39.5,19.2089149 39.5,18.75785 L39.5,9.90586599 Z" id="Path"></path>
                                <path d="M39.5,60.2422977 C39.5,59.7911508 39.1878293,59.4247788 38.8054022,59.4247788 C38.4229817,59.4247788 38.1140351,59.7911508 38.1140351,60.2422977 L38.1140351,69.0958907 C38.1140351,69.5470376 38.4229817,69.9115044 38.8054022,69.9115044 C39.1878293,69.9115044 39.5,69.5470376 39.5,69.0958907 L39.5,60.2422977 L39.5,60.2422977 Z" id="Path"></path>
                                <path d="M54.1372471,53.3862825 C53.8012109,53.0472743 53.2540213,53.0487054 52.9179761,53.3877346 C52.581947,53.7267465 52.5833701,54.2759151 52.9194153,54.6149343 L59.5139795,61.2678673 C59.850014,61.6068765 60.3929577,61.6068756 60.7289922,61.2678673 C61.0650311,60.9288536 61.0678854,60.3782248 60.7318707,60.0392374 L54.1372471,53.3862825 Z" id="Path"></path>
                                <path d="M0.508015809,55.0081765 C0.0880195893,55.1859759 -0.11103623,55.6807587 0.0629299666,56.11001 C0.236896077,56.539256 0.718505556,56.7416417 1.13849197,56.5638414 L20.2802147,48.4603035 C20.700201,48.282504 20.9007323,47.7913411 20.7267658,47.362096 C20.5528002,46.9328447 20.0697259,46.7268391 19.6497395,46.9046394 L0.508015809,55.0081765 Z" id="Path"></path>
                                <path d="M58.025586,30.5391301 C57.6055682,30.7169316 57.4065016,31.2117183 57.5804773,31.6409771 C57.7544495,32.0702254 58.2360918,32.2726179 58.6561173,32.0948138 L77.7992326,23.9911828 C78.2192503,23.8133813 78.4180157,23.3229621 78.2440366,22.893712 C78.0700583,22.4644558 77.588719,22.2577003 77.1687012,22.4355009 L58.025586,30.5391301 Z" id="Path"></path>
                                <path d="M54.5256399,78.4874943 C54.7018814,78.9112 55.1923288,79.11202 55.617817,78.9365123 C56.0432957,78.7610073 56.2439083,78.275138 56.0676677,77.8514315 L48.0352235,58.5403131 C47.858982,58.1166083 47.3721297,57.9143065 46.9466414,58.0898115 C46.5211523,58.26532 46.3169542,58.7526703 46.4931957,59.176376 L54.5256399,78.4874943 Z" id="Path"></path>
                                <path d="M30.2712443,20.4609085 C30.4474852,20.8846422 30.9379303,21.0854803 31.3634243,20.909959 C31.7889174,20.7344413 31.9895227,20.2485369 31.8132792,19.8248005 L23.7807437,0.512284083 C23.6045002,0.0885477773 23.1183798,-0.111980469 22.6928963,0.0635369189 C22.2674032,0.239058127 22.0624557,0.72465621 22.2386983,1.14839269 L30.2712443,20.4609085 Z" id="Path"></path>
                                <path d="M22.2388143,77.8499721 C22.0625791,78.2736855 22.2667545,78.7611628 22.6919191,78.9366836 C23.1173696,79.1123208 23.6042808,78.9098762 23.7805325,78.4861594 L31.8132956,59.1749292 C31.989543,58.7512202 31.7888425,58.2654687 31.3630694,58.089987 C30.9375238,57.9145998 30.447089,58.1152925 30.2708599,58.5389903 L22.2388143,77.8499721 Z" id="Path"></path>
                                <path d="M46.4932029,19.8233498 C46.3169608,20.2470881 46.5211434,20.734597 46.9463216,20.9101315 C47.3717666,21.0857754 47.8586955,20.8833311 48.0349359,20.4595815 C48.1853071,20.0980311 53.3901476,7.58460707 56.0677748,1.14712932 C56.2440247,0.723394111 56.0426745,0.239283646 55.6171563,0.0637629502 C55.1916555,-0.111750887 54.701896,0.0872774315 54.5256635,0.510991194 L46.4932029,19.8233498 Z" id="Path"></path>
                                <path d="M77.1672638,56.5643855 C77.5872475,56.74219 78.07032,56.5361811 78.2442899,56.10691 C78.418252,55.6776618 78.2178472,55.1862531 77.798083,55.0085559 L58.6560308,46.9051832 C58.2360334,46.7273866 57.7544202,46.929773 57.580459,47.3589975 C57.4064874,47.7882493 57.6056367,48.2827686 58.0258897,48.4606883 L77.1672638,56.5643855 Z" id="Path"></path>
                                <path d="M19.6496315,32.0953623 C20.0696492,32.2731593 20.5527654,32.0671576 20.7267441,31.6378778 C20.9007125,31.2086296 20.7002996,30.7172089 20.2805056,30.5395086 L1.13708714,22.4360426 C0.717060413,22.2582439 0.237194306,22.4613891 0.0632189279,22.890631 C-0.11076256,23.3198897 0.0864579149,23.8140852 0.506340328,23.9918251 L19.6496315,32.0953623 Z" id="Path"></path>
                                <path d="M54.1372471,25.6137175 C53.8012109,25.9527257 53.2540213,25.9512946 52.9179761,25.6122654 C52.581947,25.2732535 52.5833701,24.7240849 52.9194153,24.3850657 L59.5139795,17.7321327 C59.850014,17.3931235 60.3929577,17.3931244 60.7289922,17.7321327 C61.0650311,18.0711464 61.0678854,18.6217752 60.7318707,18.9607626 L54.1372471,25.6137175 Z" id="Path"></path>
                                <path d="M24.1697704,53.3862825 C24.5058067,53.0472743 25.0529962,53.0487054 25.3890415,53.3877346 C25.7250706,53.7267465 25.7236475,54.2759151 25.3876022,54.6149343 L18.793038,61.2678673 C18.4570036,61.6068765 17.9140598,61.6068756 17.5780254,61.2678673 C17.2419864,60.9288536 17.2391322,60.3782248 17.5751468,60.0392374 L24.1697704,53.3862825 Z" id="Path"></path>
                            </g>
                        </g>
                    </g>
                </g>
            </g>
        </g>
    </g>
</svg>